# Wavefront OBJ file automatically generated by Tiled2Unity

# Vertices (Count = 128)
v 0 -1.59999990463257 0
v -0.319999992847443 -1.59999990463257 0
v -0.319999992847443 -1.27999997138977 0
v 0 -1.27999997138977 0
v -0.639999985694885 -1.59999990463257 0
v -0.639999985694885 -1.27999997138977 0
v -0.959999978542328 -1.59999990463257 0
v -0.959999978542328 -1.27999997138977 0
v -1.27999997138977 -1.59999990463257 0
v -1.27999997138977 -1.27999997138977 0
v -1.59999990463257 -1.59999990463257 0
v -1.59999990463257 -1.27999997138977 0
v -1.91999995708466 -1.59999990463257 0
v -1.91999995708466 -1.27999997138977 0
v -2.24000000953674 -1.59999990463257 0
v -2.24000000953674 -1.27999997138977 0
v -2.55999994277954 -1.59999990463257 0
v -2.55999994277954 -1.27999997138977 0
v -2.87999987602234 -1.59999990463257 0
v -2.87999987602234 -1.27999997138977 0
v -3.19999980926514 -1.59999990463257 0
v -3.19999980926514 -1.27999997138977 0
v -3.51999998092651 -1.59999990463257 0
v -3.51999998092651 -1.27999997138977 0
v -3.83999991416931 -1.59999990463257 0
v -3.83999991416931 -1.27999997138977 0
v -4.15999984741211 -1.59999990463257 0
v -4.15999984741211 -1.27999997138977 0
v -4.48000001907349 -1.59999990463257 0
v -4.48000001907349 -1.27999997138977 0
v -4.79999971389771 -1.59999990463257 0
v -4.79999971389771 -1.27999997138977 0
v 0 -1.91999995708466 0
v -0.319999992847443 -1.91999995708466 0
v -0.639999985694885 -1.91999995708466 0
v -0.959999978542328 -1.91999995708466 0
v -1.27999997138977 -1.91999995708466 0
v -1.59999990463257 -1.91999995708466 0
v -1.91999995708466 -1.91999995708466 0
v -2.24000000953674 -1.91999995708466 0
v -2.55999994277954 -1.91999995708466 0
v -2.87999987602234 -1.91999995708466 0
v -3.19999980926514 -1.91999995708466 0
v -3.51999998092651 -1.91999995708466 0
v -3.83999991416931 -1.91999995708466 0
v -4.15999984741211 -1.91999995708466 0
v -4.48000001907349 -1.91999995708466 0
v -4.79999971389771 -1.91999995708466 0
v 0 -2.24000000953674 0
v -0.319999992847443 -2.24000000953674 0
v -0.639999985694885 -2.24000000953674 0
v -0.959999978542328 -2.24000000953674 0
v -1.27999997138977 -2.24000000953674 0
v -1.59999990463257 -2.24000000953674 0
v -1.91999995708466 -2.24000000953674 0
v -2.24000000953674 -2.24000000953674 0
v -2.55999994277954 -2.24000000953674 0
v -2.87999987602234 -2.24000000953674 0
v -3.19999980926514 -2.24000000953674 0
v -3.51999998092651 -2.24000000953674 0
v -3.83999991416931 -2.24000000953674 0
v -4.15999984741211 -2.24000000953674 0
v -4.48000001907349 -2.24000000953674 0
v -4.79999971389771 -2.24000000953674 0
v -0.639999985694885 -0.959999978542328 0
v -0.319999992847443 -0.959999978542328 0
v -0.959999978542328 -0.959999978542328 0
v -1.27999997138977 -0.959999978542328 0
v -1.59999990463257 -0.959999978542328 0
v -1.91999995708466 -0.959999978542328 0
v -2.24000000953674 -0.959999978542328 0
v -2.55999994277954 -0.959999978542328 0
v -2.87999987602234 -0.959999978542328 0
v -3.19999980926514 -0.959999978542328 0
v -3.51999998092651 -0.959999978542328 0
v -3.83999991416931 -0.959999978542328 0
v -4.15999984741211 -0.959999978542328 0
v -4.48000001907349 -0.959999978542328 0
v -4.79999971389771 -0.959999978542328 0
v 0 -0.319999992847443 0
v -0.319999992847443 -0.319999992847443 0
v -0.319999992847443 0 0
v 0 0 0
v -0.639999985694885 -0.319999992847443 0
v -0.639999985694885 0 0
v -0.959999978542328 -0.319999992847443 0
v -0.959999978542328 0 0
v -1.27999997138977 -0.319999992847443 0
v -1.27999997138977 0 0
v -1.59999990463257 -0.319999992847443 0
v -1.59999990463257 0 0
v -1.91999995708466 -0.319999992847443 0
v -1.91999995708466 0 0
v -2.24000000953674 -0.319999992847443 0
v -2.24000000953674 0 0
v -2.55999994277954 -0.319999992847443 0
v -2.55999994277954 0 0
v -2.87999987602234 -0.319999992847443 0
v -2.87999987602234 0 0
v -3.19999980926514 -0.319999992847443 0
v -3.19999980926514 0 0
v -3.51999998092651 -0.319999992847443 0
v -3.51999998092651 0 0
v -3.83999991416931 -0.319999992847443 0
v -3.83999991416931 0 0
v -4.15999984741211 -0.319999992847443 0
v -4.15999984741211 0 0
v -4.48000001907349 -0.319999992847443 0
v -4.48000001907349 0 0
v -4.79999971389771 -0.319999992847443 0
v -4.79999971389771 0 0
v 0 -0.639999985694885 0
v -0.319999992847443 -0.639999985694885 0
v -0.639999985694885 -0.639999985694885 0
v -0.959999978542328 -0.639999985694885 0
v -1.27999997138977 -0.639999985694885 0
v -1.59999990463257 -0.639999985694885 0
v -1.91999995708466 -0.639999985694885 0
v -2.24000000953674 -0.639999985694885 0
v -2.55999994277954 -0.639999985694885 0
v -2.87999987602234 -0.639999985694885 0
v -3.19999980926514 -0.639999985694885 0
v -3.51999998092651 -0.639999985694885 0
v -3.83999991416931 -0.639999985694885 0
v -4.15999984741211 -0.639999985694885 0
v -4.48000001907349 -0.639999985694885 0
v -4.79999971389771 -0.639999985694885 0
v 0 -0.959999978542328 0

# Texture Coorindates (Count = 204)
vt 0.1001221 0.8001221
vt 0.1998779 0.8001221
vt 0.1998779 0.8998779
vt 0.1001221 0.8998779
vt 0.2001221 0.8001221
vt 0.2998779 0.8001221
vt 0.2998779 0.8998779
vt 0.2001221 0.8998779
vt 0.3001221 0.8001221
vt 0.3998779 0.8001221
vt 0.3998779 0.8998779
vt 0.3001221 0.8998779
vt 0.1001221 0.7001221
vt 0.1998779 0.7001221
vt 0.1998779 0.7998779
vt 0.1001221 0.7998779
vt 0.2001221 0.7001221
vt 0.2998779 0.7001221
vt 0.2998779 0.7998779
vt 0.2001221 0.7998779
vt 0.3001221 0.7001221
vt 0.3998779 0.7001221
vt 0.3998779 0.7998779
vt 0.3001221 0.7998779
vt 0.1001221 0.6001221
vt 0.1998779 0.6001221
vt 0.1998779 0.6998779
vt 0.1001221 0.6998779
vt 0.2001221 0.6001221
vt 0.2998779 0.6001221
vt 0.2998779 0.6998779
vt 0.2001221 0.6998779
vt 0.3001221 0.6001221
vt 0.3998779 0.6001221
vt 0.3998779 0.6998779
vt 0.3001221 0.6998779
vt 0.1667887 0.6667888
vt 0.2498779 0.6667888
vt 0.2498779 0.7332113
vt 0.1667887 0.7332113
vt 0.0001220703 0.8667887
vt 0.08321127 0.8667887
vt 0.08321127 0.9332113
vt 0.0001220703 0.9332113
vt 0.3334554 0.8667887
vt 0.4165446 0.8667887
vt 0.4165446 0.9332113
vt 0.3334554 0.9332113
vt 0.4167887 0.8667887
vt 0.4998779 0.8667887
vt 0.4998779 0.9332113
vt 0.4167887 0.9332113
vt 0.1667887 0.8001221
vt 0.2498779 0.8001221
vt 0.2498779 0.8665446
vt 0.1667887 0.8665446
vt 0.6667888 0.3334554
vt 0.7498779 0.3334554
vt 0.7498779 0.3998779
vt 0.6667888 0.3998779
vt 0.7501221 0.3334554
vt 0.8332112 0.3334554
vt 0.8332112 0.3998779
vt 0.7501221 0.3998779
vt 0.8334554 0.3334554
vt 0.9165446 0.3334554
vt 0.9165446 0.3998779
vt 0.8334554 0.3998779
vt 0.9167888 0.3334554
vt 0.9998779 0.3334554
vt 0.9998779 0.3998779
vt 0.9167888 0.3998779
vt 0.0001220703 0.8001221
vt 0.08321127 0.8001221
vt 0.08321127 0.8665446
vt 0.0001220703 0.8665446
vt 0.3334554 0.8001221
vt 0.4165446 0.8001221
vt 0.4165446 0.8665446
vt 0.3334554 0.8665446
vt 0.4167887 0.8001221
vt 0.4998779 0.8001221
vt 0.4998779 0.8665446
vt 0.4167887 0.8665446
vt 0.1667887 0.7334554
vt 0.2498779 0.7334554
vt 0.2498779 0.7998779
vt 0.1667887 0.7998779
vt 0.6667888 0.2667888
vt 0.7498779 0.2667888
vt 0.7498779 0.3332113
vt 0.6667888 0.3332113
vt 0.7501221 0.2667888
vt 0.8332112 0.2667888
vt 0.8332112 0.3332113
vt 0.7501221 0.3332113
vt 0.8334554 0.2667888
vt 0.9165446 0.2667888
vt 0.9165446 0.3332113
vt 0.8334554 0.3332113
vt 0.9167888 0.2667888
vt 0.9998779 0.2667888
vt 0.9998779 0.3332113
vt 0.9167888 0.3332113
vt 0.0001220703 0.7334554
vt 0.08321127 0.7334554
vt 0.08321127 0.7998779
vt 0.0001220703 0.7998779
vt 0.3334554 0.7334554
vt 0.4165446 0.7334554
vt 0.4165446 0.7998779
vt 0.3334554 0.7998779
vt 0.4167887 0.7334554
vt 0.4998779 0.7334554
vt 0.4998779 0.7998779
vt 0.4167887 0.7998779
vt 0.6667888 0.2001221
vt 0.7498779 0.2001221
vt 0.7498779 0.2665446
vt 0.6667888 0.2665446
vt 0.7501221 0.2001221
vt 0.8332112 0.2001221
vt 0.8332112 0.2665446
vt 0.7501221 0.2665446
vt 0.8334554 0.2001221
vt 0.9165446 0.2001221
vt 0.9165446 0.2665446
vt 0.8334554 0.2665446
vt 0.9167888 0.2001221
vt 0.9998779 0.2001221
vt 0.9998779 0.2665446
vt 0.9167888 0.2665446
vt 0.0001220703 0.6667888
vt 0.08321127 0.6667888
vt 0.08321127 0.7332113
vt 0.0001220703 0.7332113
vt 0.3334554 0.6667888
vt 0.4165446 0.6667888
vt 0.4165446 0.7332113
vt 0.3334554 0.7332113
vt 0.4167887 0.6667888
vt 0.4998779 0.6667888
vt 0.4998779 0.7332113
vt 0.4167887 0.7332113
vt 0.6667888 0.1334554
vt 0.7498779 0.1334554
vt 0.7498779 0.1998779
vt 0.6667888 0.1998779
vt 0.7501221 0.1334554
vt 0.8332112 0.1334554
vt 0.8332112 0.1998779
vt 0.7501221 0.1998779
vt 0.8334554 0.1334554
vt 0.9165446 0.1334554
vt 0.9165446 0.1998779
vt 0.8334554 0.1998779
vt 0.9167888 0.1334554
vt 0.9998779 0.1334554
vt 0.9998779 0.1998779
vt 0.9167888 0.1998779
vt 0.0001220703 0.6001221
vt 0.08321127 0.6001221
vt 0.08321127 0.6665446
vt 0.0001220703 0.6665446
vt 0.4001221 0.7501221
vt 0.599878 0.7501221
vt 0.599878 0.9998779
vt 0.4001221 0.9998779
vt 0.4001221 0.5001221
vt 0.599878 0.5001221
vt 0.599878 0.7498779
vt 0.4001221 0.7498779
vt 0.1819403 0.2001221
vt 0.2726052 0.2001221
vt 0.2726052 0.3998779
vt 0.1819403 0.3998779
vt 0.09078702 0.8001221
vt 0.09078702 0.9998779
vt 0.0001220703 0.9998779
vt 0.09103116 0.8001221
vt 0.1816961 0.8001221
vt 0.1816961 0.9998779
vt 0.09103116 0.9998779
vt 0.1819403 0.0001220703
vt 0.2726052 0.0001220703
vt 0.2726052 0.1998779
vt 0.1819403 0.1998779
vt 0.09078702 0.6001221
vt 0.09078702 0.7998779
vt 0.09103116 0.6001221
vt 0.1816961 0.6001221
vt 0.1816961 0.7998779
vt 0.09103116 0.7998779
vt 0.0001220703 0.4001221
vt 0.09078702 0.4001221
vt 0.09078702 0.599878
vt 0.0001220703 0.599878
vt 0.09103116 0.4001221
vt 0.1816961 0.4001221
vt 0.1816961 0.599878
vt 0.09103116 0.599878
vt 0.0001220703 0.0001220703
vt 0.9998779 0.0001220703
vt 0.9998779 0.9998779

# Normal
vn 0 0 -1

# Groups (Count = 6)
g mesh_[00]_[07]
f  1/1/1  2/2/1  3/3/1  4/4/1 
f  2/5/1  5/6/1  6/7/1  3/8/1 
f  5/5/1  7/6/1  8/7/1  6/8/1 
f  7/5/1  9/6/1  10/7/1  8/8/1 
f  9/5/1  11/6/1  12/7/1  10/8/1 
f  11/5/1  13/6/1  14/7/1  12/8/1 
f  13/5/1  15/6/1  16/7/1  14/8/1 
f  15/5/1  17/6/1  18/7/1  16/8/1 
f  17/5/1  19/6/1  20/7/1  18/8/1 
f  19/5/1  21/6/1  22/7/1  20/8/1 
f  21/5/1  23/6/1  24/7/1  22/8/1 
f  23/5/1  25/6/1  26/7/1  24/8/1 
f  25/5/1  27/6/1  28/7/1  26/8/1 
f  27/5/1  29/6/1  30/7/1  28/8/1 
f  29/9/1  31/10/1  32/11/1  30/12/1 
f  33/13/1  34/14/1  2/15/1  1/16/1 
f  34/17/1  35/18/1  5/19/1  2/20/1 
f  35/17/1  36/18/1  7/19/1  5/20/1 
f  36/17/1  37/18/1  9/19/1  7/20/1 
f  37/17/1  38/18/1  11/19/1  9/20/1 
f  38/17/1  39/18/1  13/19/1  11/20/1 
f  39/17/1  40/18/1  15/19/1  13/20/1 
f  40/17/1  41/18/1  17/19/1  15/20/1 
f  41/17/1  42/18/1  19/19/1  17/20/1 
f  42/17/1  43/18/1  21/19/1  19/20/1 
f  43/17/1  44/18/1  23/19/1  21/20/1 
f  44/17/1  45/18/1  25/19/1  23/20/1 
f  45/17/1  46/18/1  27/19/1  25/20/1 
f  46/17/1  47/18/1  29/19/1  27/20/1 
f  47/21/1  48/22/1  31/23/1  29/24/1 
f  49/25/1  50/26/1  34/27/1  33/28/1 
f  50/29/1  51/30/1  35/31/1  34/32/1 
f  51/29/1  52/30/1  36/31/1  35/32/1 
f  52/29/1  53/30/1  37/31/1  36/32/1 
f  53/29/1  54/30/1  38/31/1  37/32/1 
f  54/29/1  55/30/1  39/31/1  38/32/1 
f  55/29/1  56/30/1  40/31/1  39/32/1 
f  56/29/1  57/30/1  41/31/1  40/32/1 
f  57/29/1  58/30/1  42/31/1  41/32/1 
f  58/29/1  59/30/1  43/31/1  42/32/1 
f  59/29/1  60/30/1  44/31/1  43/32/1 
f  60/29/1  61/30/1  45/31/1  44/32/1 
f  61/29/1  62/30/1  46/31/1  45/32/1 
f  62/29/1  63/30/1  47/31/1  46/32/1 
f  63/33/1  64/34/1  48/35/1  47/36/1 
g mesh_[02]_[09]
f  3/37/1  6/38/1  65/39/1  66/40/1 
f  6/37/1  8/38/1  67/39/1  65/40/1 
f  8/37/1  10/38/1  68/39/1  67/40/1 
f  10/37/1  12/38/1  69/39/1  68/40/1 
f  12/37/1  14/38/1  70/39/1  69/40/1 
f  14/37/1  16/38/1  71/39/1  70/40/1 
f  16/37/1  18/38/1  72/39/1  71/40/1 
f  18/37/1  20/38/1  73/39/1  72/40/1 
f  20/37/1  22/38/1  74/39/1  73/40/1 
f  22/37/1  24/38/1  75/39/1  74/40/1 
f  24/37/1  26/38/1  76/39/1  75/40/1 
f  26/37/1  28/38/1  77/39/1  76/40/1 
f  28/37/1  30/38/1  78/39/1  77/40/1 
f  30/37/1  32/38/1  79/39/1  78/40/1 
g mesh_[03]_[09]
f  80/41/1  81/42/1  82/43/1  83/44/1 
f  81/45/1  84/46/1  85/47/1  82/48/1 
f  84/49/1  86/50/1  87/51/1  85/52/1 
f  86/53/1  88/54/1  89/55/1  87/56/1 
f  88/53/1  90/54/1  91/55/1  89/56/1 
f  90/57/1  92/58/1  93/59/1  91/60/1 
f  92/61/1  94/62/1  95/63/1  93/64/1 
f  94/65/1  96/66/1  97/67/1  95/68/1 
f  96/69/1  98/70/1  99/71/1  97/72/1 
f  98/53/1  100/54/1  101/55/1  99/56/1 
f  100/53/1  102/54/1  103/55/1  101/56/1 
f  102/53/1  104/54/1  105/55/1  103/56/1 
f  104/53/1  106/54/1  107/55/1  105/56/1 
f  106/45/1  108/46/1  109/47/1  107/48/1 
f  108/49/1  110/50/1  111/51/1  109/52/1 
f  112/73/1  113/74/1  81/75/1  80/76/1 
f  113/77/1  114/78/1  84/79/1  81/80/1 
f  114/81/1  115/82/1  86/83/1  84/84/1 
f  115/85/1  116/86/1  88/87/1  86/88/1 
f  116/85/1  117/86/1  90/87/1  88/88/1 
f  117/89/1  118/90/1  92/91/1  90/92/1 
f  118/93/1  119/94/1  94/95/1  92/96/1 
f  119/97/1  120/98/1  96/99/1  94/100/1 
f  120/101/1  121/102/1  98/103/1  96/104/1 
f  121/85/1  122/86/1  100/87/1  98/88/1 
f  122/85/1  123/86/1  102/87/1  100/88/1 
f  123/85/1  124/86/1  104/87/1  102/88/1 
f  124/85/1  125/86/1  106/87/1  104/88/1 
f  125/77/1  126/78/1  108/79/1  106/80/1 
f  126/81/1  127/82/1  110/83/1  108/84/1 
f  128/105/1  66/106/1  113/107/1  112/108/1 
f  66/109/1  65/110/1  114/111/1  113/112/1 
f  65/113/1  67/114/1  115/115/1  114/116/1 
f  67/85/1  68/86/1  116/87/1  115/88/1 
f  68/85/1  69/86/1  117/87/1  116/88/1 
f  69/117/1  70/118/1  118/119/1  117/120/1 
f  70/121/1  71/122/1  119/123/1  118/124/1 
f  71/125/1  72/126/1  120/127/1  119/128/1 
f  72/129/1  73/130/1  121/131/1  120/132/1 
f  73/85/1  74/86/1  122/87/1  121/88/1 
f  74/85/1  75/86/1  123/87/1  122/88/1 
f  75/85/1  76/86/1  124/87/1  123/88/1 
f  76/85/1  77/86/1  125/87/1  124/88/1 
f  77/109/1  78/110/1  126/111/1  125/112/1 
f  78/113/1  79/114/1  127/115/1  126/116/1 
f  4/133/1  3/134/1  66/135/1  128/136/1 
f  3/137/1  6/138/1  65/139/1  66/140/1 
f  6/141/1  8/142/1  67/143/1  65/144/1 
f  12/145/1  14/146/1  70/147/1  69/148/1 
f  14/149/1  16/150/1  71/151/1  70/152/1 
f  16/153/1  18/154/1  72/155/1  71/156/1 
f  18/157/1  20/158/1  73/159/1  72/160/1 
f  28/137/1  30/138/1  78/139/1  77/140/1 
f  30/141/1  32/142/1  79/143/1  78/144/1 
f  1/161/1  2/162/1  3/163/1  4/164/1 
g mesh_[04]_[05]
f  115/165/1  116/166/1  88/167/1  86/168/1 
f  124/165/1  125/166/1  106/167/1  104/168/1 
f  67/169/1  68/170/1  116/171/1  115/172/1 
f  76/169/1  77/170/1  125/171/1  124/172/1 
g mesh_[04]_[34]
f  12/173/1  14/174/1  70/175/1  69/176/1 
f  14/73/1  16/177/1  71/178/1  70/179/1 
f  16/180/1  18/181/1  72/182/1  71/183/1 
f  18/173/1  20/174/1  73/175/1  72/176/1 
f  11/184/1  13/185/1  14/186/1  12/187/1 
f  13/161/1  15/188/1  16/189/1  14/108/1 
f  15/190/1  17/191/1  18/192/1  16/193/1 
f  17/184/1  19/185/1  20/186/1  18/187/1 
f  39/194/1  40/195/1  15/196/1  13/197/1 
f  40/198/1  41/199/1  17/200/1  15/201/1 
g mesh_[05]_[38]
f  128/202/1  66/203/1  113/204/1  112/179/1 
f  66/202/1  65/203/1  114/204/1  113/179/1 
f  65/202/1  67/203/1  115/204/1  114/179/1 
f  77/202/1  78/203/1  126/204/1  125/179/1 
f  78/202/1  79/203/1  127/204/1  126/179/1 
f  4/202/1  3/203/1  66/204/1  128/179/1 
f  8/202/1  10/203/1  68/204/1  67/179/1 
f  10/202/1  12/203/1  69/204/1  68/179/1 
f  12/202/1  14/203/1  70/204/1  69/179/1 
f  14/202/1  16/203/1  71/204/1  70/179/1 
f  16/202/1  18/203/1  72/204/1  71/179/1 
f  18/202/1  20/203/1  73/204/1  72/179/1 
f  20/202/1  22/203/1  74/204/1  73/179/1 
f  22/202/1  24/203/1  75/204/1  74/179/1 
f  24/202/1  26/203/1  76/204/1  75/179/1 
f  26/202/1  28/203/1  77/204/1  76/179/1 
