# Wavefront OBJ file automatically generated by Tiled2Unity

# Vertices (Count = 153)
v 0 -128 0
v -32 -128 0
v -32 -96 0
v 0 -96 0
v -64 -128 0
v -64 -96 0
v -96 -128 0
v -96 -96 0
v -128 -128 0
v -128 -96 0
v -160 -128 0
v -160 -96 0
v -192 -128 0
v -192 -96 0
v -224 -128 0
v -224 -96 0
v -256 -128 0
v -256 -96 0
v -288 -128 0
v -288 -96 0
v -320 -128 0
v -320 -96 0
v -352 -128 0
v -352 -96 0
v -384 -128 0
v -384 -96 0
v -416 -128 0
v -416 -96 0
v -448 -128 0
v -448 -96 0
v -480 -128 0
v -480 -96 0
v -512 -128 0
v -512 -96 0
v 0 -160 0
v -32 -160 0
v -64 -160 0
v -96 -160 0
v -128 -160 0
v -160 -160 0
v -192 -160 0
v -224 -160 0
v -256 -160 0
v -288 -160 0
v -320 -160 0
v -352 -160 0
v -384 -160 0
v -416 -160 0
v -448 -160 0
v -480 -160 0
v -512 -160 0
v 0 -192 0
v -32 -192 0
v -64 -192 0
v -96 -192 0
v -128 -192 0
v -160 -192 0
v -192 -192 0
v -224 -192 0
v -256 -192 0
v -288 -192 0
v -320 -192 0
v -352 -192 0
v -384 -192 0
v -416 -192 0
v -448 -192 0
v -480 -192 0
v -512 -192 0
v 0 -224 0
v -32 -224 0
v -64 -224 0
v -96 -224 0
v -128 -224 0
v -160 -224 0
v -192 -224 0
v -224 -224 0
v -256 -224 0
v -288 -224 0
v -320 -224 0
v -352 -224 0
v -384 -224 0
v -416 -224 0
v -448 -224 0
v -480 -224 0
v -512 -224 0
v 0 -256 0
v -32 -256 0
v -64 -256 0
v -96 -256 0
v -128 -256 0
v -160 -256 0
v -192 -256 0
v -224 -256 0
v -256 -256 0
v -288 -256 0
v -320 -256 0
v -352 -256 0
v -384 -256 0
v -416 -256 0
v -448 -256 0
v -480 -256 0
v -512 -256 0
v 0 -32 0
v -32 -32 0
v -32 0 0
v 0 0 0
v -64 -32 0
v -64 0 0
v -96 -32 0
v -96 0 0
v -128 -32 0
v -128 0 0
v -160 -32 0
v -160 0 0
v -192 -32 0
v -192 0 0
v -224 -32 0
v -224 0 0
v -256 -32 0
v -256 0 0
v -288 -32 0
v -288 0 0
v -320 -32 0
v -320 0 0
v -352 -32 0
v -352 0 0
v -384 -32 0
v -384 0 0
v -416 -32 0
v -416 0 0
v -448 -32 0
v -448 0 0
v -480 -32 0
v -480 0 0
v -512 -32 0
v -512 0 0
v 0 -64 0
v -32 -64 0
v -64 -64 0
v -96 -64 0
v -128 -64 0
v -160 -64 0
v -192 -64 0
v -224 -64 0
v -288 -64 0
v -320 -64 0
v -352 -64 0
v -384 -64 0
v -416 -64 0
v -448 -64 0
v -480 -64 0
v -512 -64 0
v -256 -64 0

# Texture cooridinates (Count = 84)
vt 0.5001221 0.2001221
vt 0.599878 0.2001221
vt 0.599878 0.2998779
vt 0.5001221 0.2998779
vt 0.0001220703 0.5334554
vt 0.08321127 0.5334554
vt 0.08321127 0.599878
vt 0.0001220703 0.599878
vt 0.08345541 0.5334554
vt 0.1665446 0.5334554
vt 0.1665446 0.599878
vt 0.08345541 0.599878
vt 0.2501221 0.5334554
vt 0.3332113 0.5334554
vt 0.3332113 0.599878
vt 0.2501221 0.599878
vt 0.1667887 0.5334554
vt 0.2498779 0.5334554
vt 0.2498779 0.599878
vt 0.1667887 0.599878
vt 0.0001220703 0.4001221
vt 0.08321127 0.4001221
vt 0.08321127 0.4665446
vt 0.0001220703 0.4665446
vt 0.0001220703 0.4667887
vt 0.08321127 0.4667887
vt 0.08321127 0.5332113
vt 0.0001220703 0.5332113
vt 0.08345541 0.4667887
vt 0.1665446 0.4667887
vt 0.1665446 0.5332113
vt 0.08345541 0.5332113
vt 0.2501221 0.4667887
vt 0.3332113 0.4667887
vt 0.3332113 0.5332113
vt 0.2501221 0.5332113
vt 0.08345541 0.4001221
vt 0.1665446 0.4001221
vt 0.1665446 0.4665446
vt 0.08345541 0.4665446
vt 0.2501221 0.4001221
vt 0.3332113 0.4001221
vt 0.3332113 0.4665446
vt 0.2501221 0.4665446
vt 0.0001220703 0.3334554
vt 0.08321127 0.3334554
vt 0.08321127 0.3998779
vt 0.0001220703 0.3998779
vt 0.08345541 0.3334554
vt 0.1665446 0.3334554
vt 0.1665446 0.3998779
vt 0.08345541 0.3998779
vt 0.2501221 0.3334554
vt 0.3332113 0.3334554
vt 0.3332113 0.3998779
vt 0.2501221 0.3998779
vt 0.3334554 0.5334554
vt 0.4165446 0.5334554
vt 0.4165446 0.599878
vt 0.3334554 0.599878
vt 0.4167887 0.5334554
vt 0.4998779 0.5334554
vt 0.4998779 0.599878
vt 0.4167887 0.599878
vt 0.3334554 0.4667887
vt 0.4165446 0.4667887
vt 0.4165446 0.5332113
vt 0.3334554 0.5332113
vt 0.4167887 0.4667887
vt 0.4998779 0.4667887
vt 0.4998779 0.5332113
vt 0.4167887 0.5332113
vt 0.3334554 0.4001221
vt 0.4165446 0.4001221
vt 0.4165446 0.4665446
vt 0.3334554 0.4665446
vt 0.4167887 0.4001221
vt 0.4998779 0.4001221
vt 0.4998779 0.4665446
vt 0.4167887 0.4665446
vt 0.0001220703 0.0001220703
vt 0.9998779 0.0001220703
vt 0.9998779 0.9998779
vt 0.0001220703 0.9998779

# Normal
vn 0 0 -1

# Groups (Count = 4)

g mesh_0001
f 1/1/1 2/2/1 3/3/1 4/4/1
f 2/1/1 5/2/1 6/3/1 3/4/1
f 5/1/1 7/2/1 8/3/1 6/4/1
f 7/1/1 9/2/1 10/3/1 8/4/1
f 9/1/1 11/2/1 12/3/1 10/4/1
f 11/1/1 13/2/1 14/3/1 12/4/1
f 13/1/1 15/2/1 16/3/1 14/4/1
f 15/1/1 17/2/1 18/3/1 16/4/1
f 17/1/1 19/2/1 20/3/1 18/4/1
f 19/1/1 21/2/1 22/3/1 20/4/1
f 21/1/1 23/2/1 24/3/1 22/4/1
f 23/1/1 25/2/1 26/3/1 24/4/1
f 25/1/1 27/2/1 28/3/1 26/4/1
f 27/1/1 29/2/1 30/3/1 28/4/1
f 29/1/1 31/2/1 32/3/1 30/4/1
f 31/1/1 33/2/1 34/3/1 32/4/1
f 35/1/1 36/2/1 2/3/1 1/4/1
f 36/1/1 37/2/1 5/3/1 2/4/1
f 37/1/1 38/2/1 7/3/1 5/4/1
f 38/1/1 39/2/1 9/3/1 7/4/1
f 39/1/1 40/2/1 11/3/1 9/4/1
f 40/1/1 41/2/1 13/3/1 11/4/1
f 41/1/1 42/2/1 15/3/1 13/4/1
f 42/1/1 43/2/1 17/3/1 15/4/1
f 43/1/1 44/2/1 19/3/1 17/4/1
f 44/1/1 45/2/1 21/3/1 19/4/1
f 45/1/1 46/2/1 23/3/1 21/4/1
f 46/1/1 47/2/1 25/3/1 23/4/1
f 47/1/1 48/2/1 27/3/1 25/4/1
f 48/1/1 49/2/1 29/3/1 27/4/1
f 49/1/1 50/2/1 31/3/1 29/4/1
f 50/1/1 51/2/1 33/3/1 31/4/1
f 52/1/1 53/2/1 36/3/1 35/4/1
f 53/1/1 54/2/1 37/3/1 36/4/1
f 54/1/1 55/2/1 38/3/1 37/4/1
f 55/1/1 56/2/1 39/3/1 38/4/1
f 56/1/1 57/2/1 40/3/1 39/4/1
f 57/1/1 58/2/1 41/3/1 40/4/1
f 58/1/1 59/2/1 42/3/1 41/4/1
f 59/1/1 60/2/1 43/3/1 42/4/1
f 60/1/1 61/2/1 44/3/1 43/4/1
f 61/1/1 62/2/1 45/3/1 44/4/1
f 62/1/1 63/2/1 46/3/1 45/4/1
f 63/1/1 64/2/1 47/3/1 46/4/1
f 64/1/1 65/2/1 48/3/1 47/4/1
f 65/1/1 66/2/1 49/3/1 48/4/1
f 66/1/1 67/2/1 50/3/1 49/4/1
f 67/1/1 68/2/1 51/3/1 50/4/1
f 69/1/1 70/2/1 53/3/1 52/4/1
f 70/1/1 71/2/1 54/3/1 53/4/1
f 71/1/1 72/2/1 55/3/1 54/4/1
f 72/1/1 73/2/1 56/3/1 55/4/1
f 73/1/1 74/2/1 57/3/1 56/4/1
f 74/1/1 75/2/1 58/3/1 57/4/1
f 75/1/1 76/2/1 59/3/1 58/4/1
f 76/1/1 77/2/1 60/3/1 59/4/1
f 77/1/1 78/2/1 61/3/1 60/4/1
f 78/1/1 79/2/1 62/3/1 61/4/1
f 79/1/1 80/2/1 63/3/1 62/4/1
f 80/1/1 81/2/1 64/3/1 63/4/1
f 81/1/1 82/2/1 65/3/1 64/4/1
f 82/1/1 83/2/1 66/3/1 65/4/1
f 83/1/1 84/2/1 67/3/1 66/4/1
f 84/1/1 85/2/1 68/3/1 67/4/1
f 86/1/1 87/2/1 70/3/1 69/4/1
f 87/1/1 88/2/1 71/3/1 70/4/1
f 88/1/1 89/2/1 72/3/1 71/4/1
f 89/1/1 90/2/1 73/3/1 72/4/1
f 90/1/1 91/2/1 74/3/1 73/4/1
f 91/1/1 92/2/1 75/3/1 74/4/1
f 92/1/1 93/2/1 76/3/1 75/4/1
f 93/1/1 94/2/1 77/3/1 76/4/1
f 94/1/1 95/2/1 78/3/1 77/4/1
f 95/1/1 96/2/1 79/3/1 78/4/1
f 96/1/1 97/2/1 80/3/1 79/4/1
f 97/1/1 98/2/1 81/3/1 80/4/1
f 98/1/1 99/2/1 82/3/1 81/4/1
f 99/1/1 100/2/1 83/3/1 82/4/1
f 100/1/1 101/2/1 84/3/1 83/4/1
f 101/1/1 102/2/1 85/3/1 84/4/1

g mesh_0002
f 103/5/1 104/6/1 105/7/1 106/8/1
f 104/9/1 107/10/1 108/11/1 105/12/1
f 107/5/1 109/6/1 110/7/1 108/8/1
f 109/13/1 111/14/1 112/15/1 110/16/1
f 111/5/1 113/6/1 114/7/1 112/8/1
f 113/5/1 115/6/1 116/7/1 114/8/1
f 115/9/1 117/10/1 118/11/1 116/12/1
f 117/17/1 119/18/1 120/19/1 118/20/1
f 119/17/1 121/18/1 122/19/1 120/20/1
f 121/13/1 123/14/1 124/15/1 122/16/1
f 123/13/1 125/14/1 126/15/1 124/16/1
f 125/5/1 127/6/1 128/7/1 126/8/1
f 127/5/1 129/6/1 130/7/1 128/8/1
f 129/5/1 131/6/1 132/7/1 130/8/1
f 131/9/1 133/10/1 134/11/1 132/12/1
f 133/9/1 135/10/1 136/11/1 134/12/1
f 137/21/1 138/22/1 104/23/1 103/24/1
f 138/21/1 139/22/1 107/23/1 104/24/1
f 139/21/1 140/22/1 109/23/1 107/24/1
f 140/21/1 141/22/1 111/23/1 109/24/1
f 141/21/1 142/22/1 113/23/1 111/24/1
f 142/25/1 143/26/1 115/27/1 113/28/1
f 143/29/1 144/30/1 117/31/1 115/32/1
f 145/33/1 146/34/1 123/35/1 121/36/1
f 146/25/1 147/26/1 125/27/1 123/28/1
f 147/21/1 148/22/1 127/23/1 125/24/1
f 148/21/1 149/22/1 129/23/1 127/24/1
f 149/21/1 150/22/1 131/23/1 129/24/1
f 150/21/1 151/22/1 133/23/1 131/24/1
f 151/21/1 152/22/1 135/23/1 133/24/1
f 4/21/1 3/22/1 138/23/1 137/24/1
f 3/21/1 6/22/1 139/23/1 138/24/1
f 6/21/1 8/22/1 140/23/1 139/24/1
f 8/21/1 10/22/1 141/23/1 140/24/1
f 10/21/1 12/22/1 142/23/1 141/24/1
f 12/21/1 14/22/1 143/23/1 142/24/1
f 14/37/1 16/38/1 144/39/1 143/40/1
f 20/41/1 22/42/1 146/43/1 145/44/1
f 22/21/1 24/22/1 147/23/1 146/24/1
f 24/21/1 26/22/1 148/23/1 147/24/1
f 26/21/1 28/22/1 149/23/1 148/24/1
f 28/21/1 30/22/1 150/23/1 149/24/1
f 30/21/1 32/22/1 151/23/1 150/24/1
f 32/21/1 34/22/1 152/23/1 151/24/1
f 1/45/1 2/46/1 3/47/1 4/48/1
f 2/45/1 5/46/1 6/47/1 3/48/1
f 5/45/1 7/46/1 8/47/1 6/48/1
f 7/45/1 9/46/1 10/47/1 8/48/1
f 9/45/1 11/46/1 12/47/1 10/48/1
f 11/45/1 13/46/1 14/47/1 12/48/1
f 13/49/1 15/50/1 16/51/1 14/52/1
f 19/53/1 21/54/1 22/55/1 20/56/1
f 21/45/1 23/46/1 24/47/1 22/48/1
f 23/45/1 25/46/1 26/47/1 24/48/1
f 25/45/1 27/46/1 28/47/1 26/48/1
f 27/45/1 29/46/1 30/47/1 28/48/1
f 29/45/1 31/46/1 32/47/1 30/48/1
f 31/45/1 33/46/1 34/47/1 32/48/1

g mesh_0003
f 144/57/1 153/58/1 119/59/1 117/60/1
f 153/61/1 145/62/1 121/63/1 119/64/1
f 16/65/1 18/66/1 153/67/1 144/68/1
f 18/69/1 20/70/1 145/71/1 153/72/1
f 15/73/1 17/74/1 18/75/1 16/76/1
f 17/77/1 19/78/1 20/79/1 18/80/1

g mesh_0004
f 115/81/1 117/82/1 118/83/1 116/84/1
f 117/81/1 119/82/1 120/83/1 118/84/1
f 119/81/1 121/82/1 122/83/1 120/84/1
f 121/81/1 123/82/1 124/83/1 122/84/1
f 143/81/1 144/82/1 117/83/1 115/84/1
f 144/81/1 153/82/1 119/83/1 117/84/1
f 153/81/1 145/82/1 121/83/1 119/84/1
f 145/81/1 146/82/1 123/83/1 121/84/1
f 4/81/1 3/82/1 138/83/1 137/84/1
f 3/81/1 6/82/1 139/83/1 138/84/1
f 6/81/1 8/82/1 140/83/1 139/84/1
f 8/81/1 10/82/1 141/83/1 140/84/1
f 10/81/1 12/82/1 142/83/1 141/84/1
f 12/81/1 14/82/1 143/83/1 142/84/1
f 14/81/1 16/82/1 144/83/1 143/84/1
f 20/81/1 22/82/1 146/83/1 145/84/1
f 22/81/1 24/82/1 147/83/1 146/84/1
f 24/81/1 26/82/1 148/83/1 147/84/1
f 26/81/1 28/82/1 149/83/1 148/84/1
f 28/81/1 30/82/1 150/83/1 149/84/1
f 30/81/1 32/82/1 151/83/1 150/84/1
f 32/81/1 34/82/1 152/83/1 151/84/1

